<?xml version="1.0" encoding="utf-8"?>
<!-- Generator: Adobe Illustrator 19.0.0, SVG Export Plug-In . SVG Version: 6.00 Build 0)  -->
<svg version="1.1" id="Livello_1" xmlns="http://www.w3.org/2000/svg" xmlns:xlink="http://www.w3.org/1999/xlink" x="0px" y="0px"
	 viewBox="0 0 49.3 100" style="enable-background:new 0 0 49.3 100;" xml:space="preserve">
<style type="text/css">
	.st0{fill-rule:evenodd;clip-rule:evenodd;fill:#1E1E1C;}
</style>
<path class="st0" d="M37.3,19.9c-1.1-0.8-2.3-1.5-2-3c0.2-1.1,1.5-1.7,2.4-2.2c1.1-0.7,1.7-2.1,1.3-3.4c-0.4-1.3-1.7-1.7-2.6-2.5
	c-1-0.8-1.3-2.3-0.3-3.3c0.7-0.7,2.1-0.3,2.9,0c1.2,0.5,2.4,1.3,3.1,2.4c1.6,2.4,1.5,5,0.4,7.5c-0.5,1.2-0.8,2.3-0.2,3.6
	c0.5,1.2,0.9,2.4,1.2,3.7c0.2,1,0.1,2.1,0.1,3.1c0,1.4,0,2.6-0.4,3.9c-0.4,1.1-2.2,1.3-2.9,0.4c-0.7-0.8-0.7-2.3-0.7-3.3
	c0-1.3,0.1-2.8-0.2-4C39,21.6,38.3,20.6,37.3,19.9z M29.4,30.8c1.5-0.3,1.6-2.2,1.7-3.4c0.1-2.8-0.1-5.7-0.1-8.5c0-3,0-6.1,0-9.1
	c0,0.6,0,0,0,0s0,0,0,0c0-0.5,0-1.1,0-1.6c0-1.2-0.3-3.1-1.8-3.1c-1.5-0.1-2.1,1.5-2.2,2.8c0,0.4,0,0.8-0.1,1.2
	c-0.1,3.3-0.1,6.6-0.1,9.8c0,1.6,0,3.2,0,4.8c0,1.5-0.1,3,0.1,4.5C27.2,29.5,27.6,31.1,29.4,30.8z M11.1,11.3c0.5,0.6,1.1,1,1.6,1.6
	c0.2,0.3,0.4,0.5,0.6,0.8c0.2,0.3,0.4,0.7,0.5,1c0.1,0.3,0.2,0.5,0.3,0.8c0.1,0.2,2.6,12,2.7,12.2c0.1,0.5,0.4,1.4,0.5,1.7
	c0.2,0.5,0.6,1,1,1.2c0.6,0.3,1.1,0.3,1.8,0c0.6-0.3,0.8-0.6,0.9-1.4c0-0.5-0.1-1.6-0.2-1.8c0-0.1-3.6-18.5-3.9-19.5
	c-0.1-0.3-0.2-0.6-0.3-0.9c-0.9-2.4-4.1-2.6-5.4-0.6c-0.5,0.8-0.8,2.6-0.8,2.8c0,0.2,0,0.7,0.3,1.2C10.6,10.8,10.8,11,11.1,11.3z
	 M6.7,30.7c0.3,0.1,0.5,0.1,0.8,0.1c1.2-0.3,1.6-1.5,1.9-2.6c0.2-0.5,0.3-0.9,0.6-1.3c0.2-0.4,0.5-0.8,0.8-1.2
	c0.2-0.3,0.4-0.6,0.4-1c0.2-1.2,0.1-2.4-0.2-3.6c-0.2-1-0.6-3.5-1.6-3.9c-0.2-0.1-0.4-0.1-0.5,0c-0.3,0.1-0.4,0.3-0.5,0.5
	C8.3,18,8.1,18.3,8,18.6c-1,3-1.6,5.9-2.3,8.8C5.3,29.6,5.5,30.3,6.7,30.7z M43.5,74.1c-0.1-1.5,0.4-4.9-2.1-4.9
	c-1.3,0-1.9,1.4-1.9,3.4c0,1.1,0.2,4.9-0.2,6c-0.4,1.1-1.3,1.9-1.6,3c-0.3,1.3,0.6,2.2,1.3,3.2c0.6,0.8,0.5,1.9,0.5,2.9
	c0,1.3,0.1,2.7,0.1,4c0,1,0.1,2.4,1,3c1,0.6,2.2,0.1,2.6-0.9c0.4-1.1,0.4-2.3,0.4-3.4C43.5,85,43.5,79.5,43.5,74.1
	C43.5,74.6,43.4,73.3,43.5,74.1z M31.4,73.7c0.1-3-0.6-3.7-0.7-3.8c-0.5-0.8-2-0.8-2.6,0c-0.8,1-0.6,2.7-0.7,3.8
	c0,1.3,0.1,14.5,0.1,15.9c0,1.1,0,2.3,0.1,3.3c0.2,0.9,0.6,2.1,1.7,2.1c1.3,0.1,1.6-1.1,1.8-2.1c0.5-2.4-0.4-5.1,0.4-7.4
	c0.3-1.1,1.3-1.7,1.7-2.8c0.4-1.1-0.5-2.1-1.1-3C31.5,78.6,31.3,77.4,31.4,73.7z M13.7,76.6c-2.2,0-1.9,3.3-1.9,3.3s0,12.6,0,12.8
	c0,0.8,0.5,2.3,1.9,2.3c1.1,0,1.9-1.1,1.9-2.3c0-2,0-12.8,0-12.8S15.7,76.6,13.7,76.6z M18.2,69.4c-1.8-0.1-8.3-0.1-10,0
	c-1,0.1-2.7,0.4-2.7,1.8c0,1.7,1.4,1.9,2.7,2c1.7,0.2,8.9,0.1,10,0c1.1-0.1,3.1-0.2,3.1-2C21.3,69.6,19.5,69.5,18.2,69.4z
	 M19.7,39.1c-0.8-0.8-2-1.6-3.2-1.7c-1.2-0.1-2.2,1-1.7,2.2c0.5,1.2,1.7,1.7,2.4,2.7c0.8,1.1,0.9,2.4,0.9,3.7c0.1,3,0.1,6,0,9
	c0,1.2-0.4,2.1-1.2,3c-0.9,0.9-2.4,1.8-2,3.2c0.8,2.6,3.7,0.9,4.8-0.3c1.6-1.7,2.4-4.2,2.4-6.5c0-2.9,0.1-7.4,0-8.9
	C21.9,43.1,21.4,40.9,19.7,39.1z M9.5,40.9c0-1-0.1-2.2-0.7-3c-0.5-0.8-1.7-0.9-2.4-0.3c-0.6,0.5-0.8,1.6-0.8,2.4
	c-0.1,1.3-0.1,13.8,0,18.8c0,1,0,2.4,0.7,3.3c0.6,0.7,1.9,0.8,2.5,0c0.6-0.8,0.7-2,0.7-2.9C9.6,58.1,9.5,45.9,9.5,40.9
	C9.5,41.2,9.5,40.9,9.5,40.9z M9.5,40.9L9.5,40.9C9.5,40.9,9.5,40.9,9.5,40.9z M33.3,47.6c-1.8-0.7-1.5-2.8-1.6-6.3
	c0-0.1,0.2-5.1-2.9-3.9c-1,0.4-1.1,1.8-1.1,2.7c-0.1,1.4-0.1,2.8-0.1,4.1c0,2.8,0.1,5.7,0.1,8.5c0,1.5,0.1,2.9,0.1,4.4
	c0,1.1-0.1,2.4,0.2,3.5c0.3,1.2,1.2,2.5,2.7,1.8c1.1-0.5,1.3-1.9,1.3-3c0-1.6-0.1-3.2,0-4.7c0.1-1.1,0.4-2,1.5-2.6
	c1-0.6,2.1-0.9,2.1-2.2C35.6,48.6,34.4,48,33.3,47.6z M39.9,40.9c1.4,0,3.7-0.2,3.7-1.9c0-2.2-3.1-2-3.5-2c-1.2,0-3.9-0.2-3.9,2
	C36.2,40.7,38.8,40.9,39.9,40.9z M40.3,62.9c0.4,0,3.5,0.2,3.5-2c0-1.7-2.3-1.9-3.7-1.9c-1.1,0-3.7,0.1-3.7,1.9
	C36.4,63.1,39.1,62.9,40.3,62.9z"/>
</svg>
